# xmcd
#
# Track frame offsets: 
#        150
#        18062
#        40247
#        63920
#        84032
#        101862
#        118055
#        142272
#        158340
#        180825
#        197542
#        213910
#        236672
#        257827
#        279422
#        305617
#
# Disc length: 4371 seconds
#
# Revision: 3
# Processed by: cddbd v1.5.2PL0 Copyright (c) Steve Scherf et al.
# Submitted via: ExactAudioCopyFreeDBPlugin 1.0
#
DISCID=ce111110
DTITLE=Teddy Pendergrass - The Philly Years
DYEAR=1994
DGENRE=SMB
TTITLE0=I Don't Love You Anymore
TTITLE1=Easy, Easy, Got to Take It Easy
TTITLE2=Somebody Told Me
TTITLE3=The More I Get, the More I Want
TTITLE4=The Whole Town's Laughing at Me
TTITLE5=Close the Door
TTITLE6=Get Up, Get Down, Get Funky, Get Loose
TTITLE7=Only You
TTITLE8=When Somebody Loves You Back
TTITLE9=Life Is a Song Worth Singing
TTITLE10=Turn Off the Lights
TTITLE11=If You Know Like I Know
TTITLE12=Do Me
TTITLE13=I'll Never See Heaven Again
TTITLE14=Come Go with Me
TTITLE15=If You Don't Know Me by Now, Medley
EXTD=
EXTT0=
EXTT1=
EXTT2=
EXTT3=
EXTT4=
EXTT5=
EXTT6=
EXTT7=
EXTT8=
EXTT9=
EXTT10=
EXTT11=
EXTT12=
EXTT13=
EXTT14=
EXTT15=
PLAYORDER=
